<mxfile host="Electron" agent="Mozilla/5.0 (X11; Linux x86_64) AppleWebKit/537.36 (KHTML, like Gecko) draw.io/24.7.8 Chrome/128.0.6613.36 Electron/32.0.1 Safari/537.36" version="24.7.8">
  <diagram name="Page-1" id="7e0a89b8-554c-2b80-1dc8-d5c74ca68de4">
    <mxGraphModel dx="840" dy="992" grid="1" gridSize="10" guides="1" tooltips="1" connect="1" arrows="1" fold="1" page="1" pageScale="1" pageWidth="1100" pageHeight="850" background="none" math="0" shadow="0">
      <root>
        <mxCell id="0" />
        <mxCell id="1" parent="0" />
        <mxCell id="osEPGcq4Phl5dxVZF9XY-1" value="" style="rounded=1;whiteSpace=wrap;html=1;" vertex="1" parent="1">
          <mxGeometry x="30" y="230" width="250" height="130" as="geometry" />
        </mxCell>
        <mxCell id="osEPGcq4Phl5dxVZF9XY-4" value="&lt;h1 style=&quot;margin-top: 0px;&quot;&gt;Febuary 2025&lt;/h1&gt;&lt;p&gt;&lt;font style=&quot;font-size: 20px;&quot;&gt;Design a web UI to toggle outlet power&lt;/font&gt;&lt;/p&gt;" style="text;html=1;whiteSpace=wrap;overflow=hidden;rounded=0;" vertex="1" parent="1">
          <mxGeometry x="40" y="230" width="230" height="130" as="geometry" />
        </mxCell>
        <mxCell id="osEPGcq4Phl5dxVZF9XY-5" value="" style="rounded=1;whiteSpace=wrap;html=1;" vertex="1" parent="1">
          <mxGeometry x="270" y="450" width="250" height="130" as="geometry" />
        </mxCell>
        <mxCell id="osEPGcq4Phl5dxVZF9XY-6" value="&lt;h1 style=&quot;margin-top: 0px;&quot;&gt;March 2025&lt;/h1&gt;&lt;p&gt;&lt;font style=&quot;font-size: 18px;&quot;&gt;Monitor power consumption in real-time and access data over time&lt;/font&gt;&lt;/p&gt;" style="text;html=1;whiteSpace=wrap;overflow=hidden;rounded=0;" vertex="1" parent="1">
          <mxGeometry x="280" y="450" width="230" height="130" as="geometry" />
        </mxCell>
        <mxCell id="osEPGcq4Phl5dxVZF9XY-7" value="" style="rounded=1;whiteSpace=wrap;html=1;" vertex="1" parent="1">
          <mxGeometry x="510" y="230" width="250" height="130" as="geometry" />
        </mxCell>
        <mxCell id="osEPGcq4Phl5dxVZF9XY-8" value="&lt;h1 style=&quot;margin-top: 0px;&quot;&gt;April 2025&lt;/h1&gt;&lt;div&gt;&lt;font style=&quot;font-size: 19px;&quot;&gt;Configure a microcontroller to control power consumption&lt;/font&gt;&lt;/div&gt;" style="text;html=1;whiteSpace=wrap;overflow=hidden;rounded=0;" vertex="1" parent="1">
          <mxGeometry x="520" y="230" width="230" height="130" as="geometry" />
        </mxCell>
        <mxCell id="osEPGcq4Phl5dxVZF9XY-9" value="" style="rounded=1;whiteSpace=wrap;html=1;" vertex="1" parent="1">
          <mxGeometry x="750" y="450" width="250" height="130" as="geometry" />
        </mxCell>
        <mxCell id="osEPGcq4Phl5dxVZF9XY-10" value="&lt;h1 style=&quot;margin-top: 0px;&quot;&gt;April 2025&lt;/h1&gt;&lt;p&gt;&lt;font style=&quot;font-size: 20px;&quot;&gt;Enable scheduling feature within web UI&lt;/font&gt;&lt;/p&gt;" style="text;html=1;whiteSpace=wrap;overflow=hidden;rounded=0;" vertex="1" parent="1">
          <mxGeometry x="760" y="450" width="230" height="130" as="geometry" />
        </mxCell>
        <mxCell id="osEPGcq4Phl5dxVZF9XY-11" value="" style="endArrow=classic;html=1;rounded=0;exitX=1;exitY=1;exitDx=0;exitDy=0;entryX=0.5;entryY=0;entryDx=0;entryDy=0;" edge="1" parent="1" source="osEPGcq4Phl5dxVZF9XY-4" target="osEPGcq4Phl5dxVZF9XY-6">
          <mxGeometry width="50" height="50" relative="1" as="geometry">
            <mxPoint x="290" y="650" as="sourcePoint" />
            <mxPoint x="340" y="600" as="targetPoint" />
          </mxGeometry>
        </mxCell>
        <mxCell id="osEPGcq4Phl5dxVZF9XY-12" value="" style="endArrow=classic;html=1;rounded=0;exitX=1;exitY=0;exitDx=0;exitDy=0;entryX=0.5;entryY=1;entryDx=0;entryDy=0;" edge="1" parent="1" source="osEPGcq4Phl5dxVZF9XY-6" target="osEPGcq4Phl5dxVZF9XY-8">
          <mxGeometry width="50" height="50" relative="1" as="geometry">
            <mxPoint x="540" y="650" as="sourcePoint" />
            <mxPoint x="590" y="600" as="targetPoint" />
          </mxGeometry>
        </mxCell>
        <mxCell id="osEPGcq4Phl5dxVZF9XY-13" value="" style="endArrow=classic;html=1;rounded=0;exitX=1;exitY=1;exitDx=0;exitDy=0;entryX=0.5;entryY=0;entryDx=0;entryDy=0;" edge="1" parent="1" source="osEPGcq4Phl5dxVZF9XY-8" target="osEPGcq4Phl5dxVZF9XY-10">
          <mxGeometry width="50" height="50" relative="1" as="geometry">
            <mxPoint x="540" y="650" as="sourcePoint" />
            <mxPoint x="590" y="600" as="targetPoint" />
          </mxGeometry>
        </mxCell>
        <mxCell id="osEPGcq4Phl5dxVZF9XY-14" value="" style="endArrow=none;html=1;rounded=0;" edge="1" parent="1">
          <mxGeometry width="50" height="50" relative="1" as="geometry">
            <mxPoint x="190" y="40" as="sourcePoint" />
            <mxPoint x="490" y="60" as="targetPoint" />
          </mxGeometry>
        </mxCell>
        <mxCell id="osEPGcq4Phl5dxVZF9XY-15" value="" style="endArrow=none;html=1;rounded=0;" edge="1" parent="1">
          <mxGeometry width="50" height="50" relative="1" as="geometry">
            <mxPoint x="130" y="810" as="sourcePoint" />
            <mxPoint x="700" y="810" as="targetPoint" />
          </mxGeometry>
        </mxCell>
      </root>
    </mxGraphModel>
  </diagram>
</mxfile>
